<svg width="42" height="22" viewBox="0 0 42 22" fill="none" xmlns="http://www.w3.org/2000/svg">
<path d="M31.4492 0.550781C34.3138 0.550781 36.7552 1.59245 38.7734 3.67578C40.7917 5.69401 41.8008 8.13542 41.8008 11C41.8008 13.8646 40.7917 16.3385 38.7734 18.4219C36.7552 20.4401 34.3138 21.4492 31.4492 21.4492H23.0508V17.4453H31.4492C33.207 17.4453 34.7044 16.8268 35.9414 15.5898C37.2435 14.2878 37.8945 12.7578 37.8945 11C37.8945 9.24219 37.2435 7.74479 35.9414 6.50781C34.7044 5.20573 33.207 4.55469 31.4492 4.55469H23.0508V0.550781H31.4492ZM12.6992 13.0508V8.94922H29.3008V13.0508H12.6992ZM5.96094 6.50781C4.72396 7.74479 4.10547 9.24219 4.10547 11C4.10547 12.7578 4.72396 14.2878 5.96094 15.5898C7.26302 16.8268 8.79297 17.4453 10.5508 17.4453H18.9492V21.4492H10.5508C7.6862 21.4492 5.24479 20.4401 3.22656 18.4219C1.20833 16.3385 0.199219 13.8646 0.199219 11C0.199219 8.13542 1.20833 5.69401 3.22656 3.67578C5.24479 1.59245 7.6862 0.550781 10.5508 0.550781H18.9492V4.55469H10.5508C8.79297 4.55469 7.26302 5.20573 5.96094 6.50781Z" fill="#383B3E"/>
</svg>
