<svg width="35" height="42" viewBox="0 0 35 42" fill="none" xmlns="http://www.w3.org/2000/svg">
<path d="M23.3333 11.6667H11.6667L0 0V24.5C0 34.1651 7.8349 42 17.5 42C27.1651 42 35 34.1651 35 24.5V0L23.3333 11.6667ZM10.2083 26.25C8.59688 26.25 7.29167 24.9448 7.29167 23.3333C7.29167 21.7219 8.59688 20.4167 10.2083 20.4167C11.8198 20.4167 13.125 21.7219 13.125 23.3333C13.125 24.9448 11.8198 26.25 10.2083 26.25ZM24.7917 26.25C23.1802 26.25 21.875 24.9448 21.875 23.3333C21.875 21.7219 23.1802 20.4167 24.7917 20.4167C26.4031 20.4167 27.7083 21.7219 27.7083 23.3333C27.7083 24.9448 26.4031 26.25 24.7917 26.25Z" fill="#F8F9FD"/>
</svg>
