<svg width="39" height="35" viewBox="0 0 39 35" fill="none" xmlns="http://www.w3.org/2000/svg">
<path d="M6.4043 30.5957H32.6836V19.3457H32.2441C30.4863 19.3457 29.0801 18.7598 28.0254 17.5879C26.8535 18.7598 25.4473 19.3457 23.8066 19.3457C22.2246 19.3457 20.7891 18.7598 19.5 17.5879C18.3281 18.7598 16.9512 19.3457 15.3691 19.3457C13.6113 19.3457 12.1465 18.7598 10.9746 17.5879C9.91992 18.7598 8.54297 19.3457 6.84375 19.3457H6.4043V30.5957ZM4.55859 12.5781C4.38281 13.3984 4.55859 14.1309 5.08594 14.7754C5.49609 15.3613 6.08203 15.6543 6.84375 15.6543C8.07422 15.6543 8.80664 14.9219 9.04102 13.457L10.1836 4.4043H6.49219L4.55859 12.5781ZM12.9082 13.1055C12.9082 13.75 13.1133 14.3359 13.5234 14.8633C13.9922 15.3906 14.5488 15.6543 15.1934 15.6543C15.8965 15.6543 16.4824 15.4199 16.9512 14.9512C17.4199 14.4238 17.6543 13.8379 17.6543 13.1934V4.4043H13.9629L12.9082 12.8418V13.1055ZM21.3457 4.4043V13.1934C21.3457 13.8379 21.5801 14.4238 22.0488 14.9512C22.5176 15.4199 23.0449 15.6543 23.6309 15.6543C24.3926 15.6543 25.0078 15.3906 25.4766 14.8633C26.0039 14.2773 26.209 13.6035 26.0918 12.8418L25.0371 4.4043H21.3457ZM32.4199 4.31641L28.8164 4.4043L29.959 13.457C30.0176 14.043 30.252 14.5703 30.6621 15.0391C31.0723 15.4492 31.5703 15.6543 32.1562 15.6543C32.8594 15.6543 33.4453 15.3613 33.9141 14.7754C34.4414 14.1309 34.6172 13.3984 34.4414 12.5781L32.4199 4.31641ZM38.0449 11.6992C38.5137 13.75 38.1328 15.5371 36.9023 17.0605L36.375 17.5879V30.5957C36.375 31.5918 35.9941 32.4707 35.2324 33.2324C34.4707 33.9941 33.5918 34.375 32.5957 34.375H6.4043C5.4082 34.375 4.5293 33.9941 3.76758 33.2324C3.00586 32.4707 2.625 31.5918 2.625 30.5957V17.5879L2.09766 17.0605C0.867188 15.5371 0.486328 13.75 0.955078 11.6992L2.88867 3.4375C3.06445 2.61719 3.50391 1.94336 4.20703 1.41602C4.91016 0.888672 5.67188 0.625 6.49219 0.625H32.5078C33.3281 0.625 34.0605 0.888672 34.7051 1.41602C35.4082 1.94336 35.877 2.61719 36.1113 3.4375L38.0449 11.6992Z" fill="#C4C4C4"/>
</svg>
